<svg xmlns="http://www.w3.org/2000/svg" xmlns:xlink="http://www.w3.org/1999/xlink" width="294.158" height="255" viewBox="0 0 294.158 255"><path d="M78.212 198.723c-7.078 0-13.312-4.781-15.159-11.627l-.151-.561 1.504-.855c-1.471-2.115-2.472-4.549-2.912-7.089l-12.666-73.101c-1.668-9.619 4.777-18.808 14.368-20.48l174.32-30.414c1.007-.176 2.031-.265 3.045-.265 8.591 0 15.896 6.175 17.371 14.682l10.066 58.106-18.598 26.913 1.117 18.049c.537 8.678-6.07 16.182-14.73 16.727l-156.57 9.883c-.337.021-.672.032-1.005.032zm-13.55-11.463c1.939 6.181 7.869 10.334 14.461 9.935l156.57-9.883c7.835-.494 13.813-7.285 13.326-15.139l-1.148-18.566 18.546-26.835-9.963-57.503c-1.349-7.786-8.033-13.438-15.893-13.438-.928 0-1.865.082-2.787.243l-174.32 30.412c-8.777 1.531-14.675 9.941-13.147 18.748l12.665 73.101c.453 2.62 1.506 5.017 3.129 7.123l.526.684-1.965 1.118zm14.186 6.013c-3.595 0-7.097-1.103-10.1-3.216-3.869-2.723-6.445-6.795-7.255-11.467l-12.665-73.1c-1.668-9.619 4.777-18.808 14.368-20.48l174.32-30.414c4.636-.808 9.31.239 13.159 2.948 3.87 2.723 6.447 6.796 7.257 11.469l10.015 57.805-1.479.256-10.015-57.805c-.741-4.277-3.1-8.005-6.642-10.498-3.522-2.479-7.8-3.436-12.038-2.697l-174.319 30.412c-8.777 1.531-14.675 9.941-13.147 18.748l12.665 73.101c.74 4.276 3.099 8.004 6.64 10.496 3.524 2.48 7.799 3.439 12.039 2.698l159.518-27.831.258 1.479-159.519 27.831c-1.021.178-2.045.265-3.06.265zm161.78-27.085l-5.94-34.279 34.174-6.016-28.234 40.295zm-4.206-33.061l5.063 29.223 24.069-34.352-29.132 5.129zm-139.928 43.352l-.129-.738-.555.484c-.425-.406-5.236-3.725-9.103-6.392-9.571-6.601-9.572-6.609-9.653-7.081l-8.249-47.623c-.064-.301-.064-.301 2.635-4.111 3.012-4.253 9.003-12.713 10.274-14.619l-.403-.564 1.173-.205 140.709-24.551c.427-.075.571-.096 10.004 6.653 9.352 6.693 9.352 6.693 9.429 7.039l7.91 45.135-1.477.258-7.854-44.807c-2.132-1.571-16.14-11.675-17.987-12.76l-140.179 24.458c-.461.781-1.499 2.256-3.642 5.301-2.172 3.088-4.827 6.837-6.732 9.528-1.122 1.584-1.983 2.8-2.329 3.292l8.154 47.073c.912.724 5.409 3.825 9.069 6.35 5.721 3.945 8.061 5.559 8.989 6.348l142.066-24.764.258 1.479-142.378 24.817z" fill="#C0BEBA"/><defs><path id="a" d="M3.606 123.777l40.371 26.647 5.153 26.455 7.476 28.127 35 10.743s71.875-23.128 73.438-23.228l78.896-11.665v-20.038l3.411-5.767 14.677-21.487s23.579 9.42 23.579 12.136-10.333 67.716-11 70.049-1.334 14.667-10.667 16-203.334 3.5-205 3.5-46.666-27.986-47.666-30.243l-18.667-70.591"/></defs><clipPath id="b"><use xlink:href="#a"/></clipPath><path d="M234.96 202.553c-.763 0-1.533-.05-2.31-.152l-175.435-23.123c-4.676-.615-8.83-3.021-11.697-6.773-2.867-3.751-4.105-8.399-3.485-13.089l7.689-58.162 1.486.197-7.689 58.162c-.566 4.292.566 8.548 3.19 11.981s6.424 5.634 10.701 6.197l175.436 23.122c8.838 1.155 16.967-5.1 18.141-13.96l9.721-73.55c.567-4.293-.565-8.549-3.189-11.983-2.624-3.434-6.425-5.635-10.701-6.198l-160.538-21.156.195-1.487 160.536 21.158c4.676.615 8.83 3.021 11.697 6.773s4.104 8.4 3.484 13.09l-9.721 73.552c-1.176 8.9-8.791 15.401-17.511 15.401z" fill="#C0BEBA" clip-path="url(#b)"/><defs><path id="c" d="M261.273 29.75l-19.4 23.667-8.772 5-163.556 119.436-6.271 15.078-10.334 7.226s-26.333-13.191-29.333-19.299-21.668-136.108-22.001-137.108l137.5-24"/></defs><clipPath id="d"><use xlink:href="#c"/></clipPath><path d="M64.451 187.507c-3.595 0-7.098-1.103-10.101-3.216-3.868-2.723-6.444-6.795-7.254-11.466l-12.664-73.101c-1.669-9.622 4.776-18.81 14.366-20.48l174.32-30.415c4.647-.812 9.33.244 13.186 2.966 3.856 2.723 6.425 6.789 7.232 11.449l10.015 57.807-1.479.256-10.014-57.807c-.739-4.266-3.09-7.988-6.619-10.479-3.527-2.492-7.812-3.453-12.062-2.714l-174.321 30.414c-8.777 1.529-14.674 9.939-13.146 18.747l12.665 73.102c.74 4.276 3.099 8.003 6.639 10.495 3.523 2.48 7.8 3.438 12.04 2.698l159.518-27.83.258 1.479-159.518 27.83c-1.022.177-2.045.265-3.061.265z" fill="#C0BEBA" clip-path="url(#d)"/><path d="M158.967 161.569c-18.257 0-33.781-13.121-36.913-31.199-3.542-20.445 10.154-39.974 30.532-43.53 2.139-.373 4.314-.562 6.468-.562 18.258 0 33.782 13.121 36.915 31.199 3.542 20.447-10.154 39.976-30.532 43.53-2.14.373-4.317.562-6.47.562zm.087-73.792c-2.067 0-4.156.182-6.21.539-19.563 3.416-32.713 22.166-29.312 41.798 3.007 17.356 17.909 29.955 35.435 29.955 2.067 0 4.157-.182 6.212-.541 19.564-3.412 32.713-22.162 29.312-41.796-3.008-17.357-17.911-29.955-35.437-29.955zm-.092 77.185c-19.902 0-36.824-14.304-40.238-34.011-3.861-22.289 11.069-43.576 33.281-47.453 2.332-.406 4.704-.612 7.052-.612 19.902 0 36.827 14.303 40.242 34.009 3.862 22.289-11.069 43.577-33.284 47.454-2.332.406-4.705.613-7.053.613zm.095-80.576c-2.262 0-4.547.198-6.794.591-21.398 3.734-35.781 24.244-32.061 45.719 3.289 18.986 19.589 32.767 38.76 32.767 2.262 0 4.548-.199 6.795-.592 21.401-3.733 35.785-24.243 32.063-45.72-3.29-18.986-19.592-32.765-38.763-32.765zm3.754 66.453l-1.312-5.745c-2.396.196-4.767.09-7.067-.313-2.516-.439-4.972-1.235-7.3-2.368l-.629-.305 2.993-7.43.726.359c1.866.922 3.688 1.629 5.417 2.102 1.414.387 2.881.566 4.407.557l-2.215-9.691c-1.994-.074-3.785-.268-5.33-.578-1.735-.349-3.261-.896-4.536-1.629-1.3-.747-2.378-1.725-3.204-2.904-.818-1.169-1.426-2.608-1.808-4.279l-.025-.11c-.367-1.607-.402-3.176-.106-4.665.297-1.493.906-2.883 1.811-4.13.888-1.225 2.039-2.335 3.422-3.298 1.204-.836 2.591-1.535 4.13-2.084l-.767-3.35 6.382-1.459.797 3.49c1.921-.137 3.77-.055 5.528.238 1.951.33 3.901.916 5.798 1.743l.623.271-2.414 7.466-.756-.322c-1.407-.601-2.815-1.066-4.186-1.383-1.038-.24-2.078-.39-3.103-.447l2.137 9.348c4.372.162 7.777.936 10.126 2.299 2.531 1.467 4.187 3.84 4.921 7.053l.025.11c.376 1.649.406 3.242.09 4.737-.317 1.496-.932 2.891-1.826 4.149-.887 1.249-2.043 2.38-3.438 3.363-1.222.862-2.636 1.579-4.21 2.137l1.282 5.61-6.383 1.458zm-.145-7.368l1.273 5.571 3.456-.79-1.253-5.482.658-.209c1.692-.537 3.191-1.262 4.455-2.152 1.256-.885 2.292-1.896 3.08-3.006.775-1.092 1.307-2.299 1.582-3.592.271-1.281.242-2.657-.085-4.09l-.025-.11c-.646-2.833-2.024-4.824-4.211-6.093-2.233-1.295-5.596-2.007-9.995-2.114l-.583-.015-2.82-12.342h.941c1.441.001 2.917.174 4.387.514 1.208.279 2.442.666 3.678 1.152l1.491-4.611c-1.586-.641-3.204-1.103-4.821-1.375-1.828-.309-3.777-.364-5.794-.172l-.655.063-.756-3.304-3.456.789.736 3.221-.656.209c-1.659.531-3.134 1.241-4.384 2.109-1.244.865-2.275 1.857-3.063 2.945-.777 1.072-1.3 2.264-1.555 3.542-.254 1.28-.222 2.64.098 4.036l.025.11c.339 1.484.868 2.747 1.574 3.755.699 1 1.616 1.828 2.724 2.465 1.134.652 2.508 1.143 4.083 1.459 1.61.324 3.513.514 5.656.566l.583.015 2.871 12.568-.881.056c-1.995.125-3.936-.068-5.783-.574-1.593-.436-3.257-1.059-4.956-1.854l-1.865 4.629c2.013.914 4.118 1.566 6.27 1.941 2.377.416 4.838.496 7.315.237l.661-.067zm2.284-4.876l-2.76-12.079 1 .061c2.494.152 4.234.584 5.318 1.32 1.12.759 1.853 1.869 2.18 3.298l.025.108c.358 1.573.087 3-.807 4.246-.856 1.191-2.259 2.126-4.169 2.777l-.787.269zm-.846-10.439l1.932 8.453c1.207-.512 2.098-1.161 2.653-1.936.641-.893.825-1.886.563-3.033l-.025-.107c-.243-1.066-.753-1.85-1.56-2.396-.708-.48-1.904-.809-3.563-.981zm-6.264-6.844l-1.016-.077c-1.229-.095-2.227-.243-3.053-.454-.857-.218-1.587-.523-2.168-.908-.609-.4-1.081-.887-1.4-1.443-.298-.516-.527-1.12-.682-1.794-.344-1.503-.093-2.86.735-4.091.801-1.188 2.179-2.122 4.096-2.776l.788-.269 2.7 11.812zm-3.784-9.826c-1.189.506-2.047 1.143-2.555 1.896-.595.885-.769 1.82-.529 2.861.133.586.308 1.049.531 1.438.202.353.514.668.927.939.442.293 1.018.529 1.712.707.498.127 1.094.232 1.777.312l-1.863-8.153z" fill="#C0BEBA"/></svg>