<svg xmlns="http://www.w3.org/2000/svg" width="151.875" height="25.667" viewBox="0 0 151.875 25.667"><path fill="#c3a995" d="M7.576 12.437h.063l.541 1.493.629 1.581h.818l.617-1.532.553-1.519h.052v4.912h1.365v-8.524h-1.315l-.948 2.376-.708 1.899h-.063l-.689-1.85-.954-2.425h-1.326v8.524h1.365zm10.862 4.047l.17-.888h1.618l.341 1.776h1.39l-1.781-8.523h-1.517c-.295 1.429-.59 2.849-.885 4.262s-.589 2.833-.884 4.262h1.39l.158-.889zm.676-3.907c.093-.583.18-1.169.265-1.757h.063l.569 3.539h-1.201c.11-.604.211-1.198.304-1.782zm10.802 4.525c.349-.179.604-.51.762-.991.101-.294.155-.695.164-1.201.009-.505.013-1.111.013-1.812 0-.71-.002-1.329-.007-1.855-.003-.527-.051-.94-.144-1.244-.118-.415-.327-.711-.63-.887-.303-.176-.714-.264-1.235-.264h-2.18v8.523h2.066c.445.001.842-.09 1.191-.269zm-1.893-.968v-6.049h.582c.346 0 .579.088.701.264.122.177.183.42.183.731v4.046c0 .327-.062.578-.189.75-.126.172-.358.258-.695.258h-.582zm11.956 0h-2.541v-2.461h2.212v-1.261h-2.212v-2.327h2.541v-1.237h-3.905v8.524h3.905zm11.349-7.286h1.364v8.523h-1.364zm7.963 3.564h.049c.159.408.321.812.484 1.212l.498 1.224 1.057 2.523h1.196v-8.523h-1.339v4.947l-.032.007-.031.006-.441-1.176-.268-.624-.25-.625-1.064-2.535h-1.225v8.523h1.366v-4.959zm18.243 4.69c.35-.179.603-.51.762-.991.101-.294.157-.695.164-1.201.009-.505.014-1.111.014-1.812 0-.71-.002-1.329-.007-1.855-.005-.527-.054-.94-.144-1.244-.118-.415-.33-.711-.63-.887-.304-.176-.717-.264-1.236-.264h-2.181v8.523h2.068c.445.001.843-.09 1.19-.269zm-1.892-.968v-6.049h.581c.346 0 .579.088.702.264.121.177.186.42.186.731v4.046c0 .327-.064.578-.191.75-.125.172-.359.258-.696.258h-.582zm9.08.35l.171-.888h1.616l.344 1.776h1.39l-1.783-8.524h-1.517c-.296 1.429-.59 2.849-.885 4.262s-.589 2.833-.883 4.262h1.389l.158-.888zm.677-3.907c.091-.583.18-1.169.265-1.757h.062l.569 3.539h-1.199c.11-.604.212-1.198.303-1.782zm8.202 4.795h1.363v-3.527l1.708-4.997h-1.442l-.492 1.813-.418 1.505h-.049l-.406-1.469-.543-1.849h-1.44l1.719 4.997zm10.41-1.545c-.058.116-.138.208-.248.277-.107.069-.253.104-.438.104-.318 0-.531-.099-.641-.299-.108-.2-.172-.459-.188-.778l-1.363.258c0 .286.038.555.119.806.08.252.209.471.386.657.177.186.404.331.68.436.273.105.602.159.982.159.413 0 .761-.06 1.046-.179.282-.117.509-.285.677-.502.168-.215.291-.478.361-.784.072-.307.108-.651.108-1.035 0-.317-.019-.601-.057-.85-.037-.25-.116-.474-.233-.673-.118-.201-.294-.385-.525-.552-.232-.168-.542-.324-.931-.472-.277-.105-.495-.208-.655-.306-.161-.097-.282-.195-.361-.293-.08-.098-.127-.203-.146-.313l-.022-.386.022-.366c.017-.124.054-.238.116-.344.058-.105.135-.191.23-.257.097-.064.227-.098.395-.098.316 0 .531.098.639.294.109.196.165.449.165.759l1.364-.306c0-.221-.033-.449-.102-.686-.069-.237-.182-.453-.341-.649-.161-.195-.377-.357-.648-.483-.269-.126-.612-.19-1.027-.19-.379 0-.706.058-.98.172-.275.114-.5.276-.677.484-.18.208-.311.456-.393.742-.086.286-.129.601-.129.944 0 .27.021.518.062.742.043.225.131.438.265.639.135.2.33.39.588.57.259.179.598.356 1.02.527.209.089.381.171.511.246.131.072.231.159.304.256.07.098.12.217.146.356.024.14.038.311.038.516l-.021.465c-.011.148-.047.279-.098.392zm15.006-3.652h6.634v1.87h-6.634zm7.478 0h6.633v1.87h-6.633zm10.871 0h6.634v1.87h-6.634zm12.389 6.439h-37.102v-11.008h37.102v11.008zm-35.622-1.433h34.143v-8.142h-34.143v8.142z"/></svg>
