<svg xmlns="http://www.w3.org/2000/svg" width="72.413" height="34.998" viewBox="0 0 72.413 34.998"><path d="M.872.979v33.049h70.866v-33.049h-70.866zm.806.806h69.254v15.315h-69.254v-15.315zm25.693 31.436h-25.693v-7.254h25.693v7.254zm26.902 0h-26.096v-7.254h26.096v7.254zm0-8.061h-52.595v-7.254h52.595v7.254zm.988 8.061l4.258-4.093-.174-.18-4.265 4.099v-14.992l4.445 4.241.172-.182-4.412-4.208h15.548l-4.479 4.304.174.18 4.404-4.232v14.672l-3.917-3.736-.172.182 4.089 3.9v.046h-15.671zm-47.446-24.5l-.44 1.218h-.039l-.429-1.186-.593-1.556h-.825v5.47h.849v-3.167h.039l.337.958.391 1.014h.509l.384-.982.344-.975h.032v3.152h.848v-5.47h-.817zm5.415-1.524l-.55 2.735c-.184.907-.367 1.818-.55 2.735h.865l.098-.57.106-.57h1.006l.212 1.14h.864l-1.108-5.47h-.943zm.095 3.536c.068-.388.131-.769.188-1.144l.165-1.128h.039l.354 2.271h-.746zm7.395-2.797c-.073-.267-.204-.457-.392-.57-.188-.113-.444-.169-.768-.169h-1.355v5.47h1.285c.277 0 .524-.058.741-.173s.375-.327.474-.636c.062-.189.096-.446.102-.771l.008-1.163-.004-1.191c-.003-.338-.033-.604-.091-.797zm-.755 3.29c0 .21-.039.371-.118.481s-.223.166-.432.166h-.362v-3.883h.362c.214 0 .36.057.436.17.076.113.114.27.114.469v2.597zm4.095 1.441h2.428v-.794h-1.579v-1.58h1.375v-.809h-1.375v-1.494h1.579v-.793h-2.428zm9.486-5.47h.849v5.47h-.849zm6.161 3.175l-.02.004-.02.004-.275-.755-.165-.401-.157-.401-.66-1.626h-.762v5.47h.849v-3.183h.031l.302.778.309.786.658 1.619h.743v-5.47h-.833v3.175zm10.626-2.436c-.073-.267-.204-.457-.392-.57-.188-.113-.444-.169-.769-.169h-1.355v5.47h1.285c.276 0 .523-.058.74-.173s.375-.327.475-.636c.062-.189.097-.446.102-.771l.008-1.163-.004-1.191s-.033-.604-.09-.797zm-.755 3.29c0 .21-.039.371-.118.481-.078.11-.223.166-.432.166h-.362v-3.883h.362c.214 0 .359.057.436.17s.114.27.114.469v2.597zm4.872-4.029l-.55 2.735c-.184.907-.367 1.818-.55 2.735h.864l.098-.57.106-.57h1.006l.213 1.14h.864l-1.108-5.47h-.943zm.095 3.536c.068-.388.131-.769.188-1.144l.165-1.128h.039l.354 2.271h-.746zm5.996-2.373l-.259.966h-.031l-.252-.943-.338-1.186h-.895l1.068 3.206v2.264h.849v-2.264l1.061-3.206h-.896zm4.951-.173c.036-.068.084-.123.144-.165.061-.042.142-.063.246-.063.197 0 .33.063.397.188.067.126.102.288.102.487l.849-.196c0-.142-.021-.288-.063-.44-.042-.152-.112-.291-.212-.417-.101-.125-.234-.229-.402-.31-.168-.082-.381-.122-.639-.122-.236 0-.44.037-.61.11-.171.073-.312.177-.422.311s-.192.292-.244.476c-.053.184-.079.386-.079.606 0 .173.013.332.039.477.026.144.081.281.165.409.084.129.205.25.365.366.16.115.371.229.633.338l.318.158c.081.047.145.102.188.165.045.063.075.139.091.229l.023.331-.012.299c-.008.095-.029.179-.062.252-.034.074-.085.133-.152.177s-.158.067-.272.067c-.198 0-.33-.064-.398-.192-.067-.128-.106-.295-.116-.499l-.849.165c0 .184.024.356.074.518s.13.302.24.421.251.212.422.28c.171.068.375.102.611.102.257 0 .474-.038.65-.114.176-.076.316-.183.421-.322.105-.139.181-.306.225-.503.045-.196.067-.417.067-.664 0-.204-.012-.386-.035-.546-.023-.16-.072-.304-.146-.432-.073-.128-.183-.247-.326-.354-.145-.107-.337-.208-.578-.303-.173-.068-.309-.133-.408-.196l-.224-.188c-.051-.063-.08-.13-.091-.201l-.016-.248.016-.235.07-.222zm-59.776 13.694h.475v1.164h.414v-2.665h-.414v1.114h-.475v-1.114h-.413v2.665h.413zm2.825.886l.051-.277h.49l.104.556h.421l-.54-2.665h-.46l-.268 1.332-.268 1.333h.421l.049-.279zm.204-1.221l.081-.55h.019l.172 1.106h-.364l.092-.556zm2.73-.052h.015l.147.379.15.383.321.789h.362v-2.665h-.406v1.547l-.009.002-.01.002-.134-.368-.081-.195-.077-.195-.322-.792h-.371v2.665h.414v-1.552zm3.598 1.466c.106-.056.183-.159.231-.31.031-.092.047-.217.05-.375l.004-.567-.002-.58c-.001-.164-.016-.294-.044-.389-.036-.13-.099-.223-.191-.277s-.216-.082-.374-.082h-.661v2.665h.626c.135 0 .255-.028.361-.085zm-.573-.302v-1.892h.176c.104 0 .175.027.212.083.037.055.056.131.056.229v1.265c0 .103-.019.181-.058.234-.038.054-.108.081-.21.081h-.176zm3.101.409c.207 0 .363-.059.469-.176s.162-.277.167-.479l-.207-.029-.207-.032c-.002.22-.08.329-.232.329l-.112-.026-.068-.067-.032-.086-.008-.085v-1.354l.01-.105.034-.104.07-.078.118-.031c.081 0 .14.031.176.092.037.062.055.141.055.238l.402-.104-.037-.247c-.024-.074-.062-.139-.115-.193-.052-.054-.118-.097-.197-.127s-.174-.046-.283-.046c-.12 0-.222.02-.305.058s-.15.091-.201.157c-.051.066-.087.144-.109.231l-.032.281v1.329c0 .214.052.377.157.488.105.111.267.166.487.166zm2.577-1.125h.195l.345 1.103h.421l-.395-1.191c.12-.066.204-.157.251-.273s.071-.259.071-.427c0-.273-.061-.471-.184-.592s-.292-.182-.509-.182h-.609v2.665h.414v-1.103zm0-1.175h.161c.115 0 .197.034.247.102s.075.162.075.285c0 .138-.025.238-.077.301s-.13.094-.237.094h-.168v-.782zm2.774 2l.052-.277h.49l.103.556h.421l-.54-2.665h-.459l-.268 1.332-.268 1.333h.421l.048-.279zm.205-1.221l.08-.55h.019l.172 1.106h-.364l.093-.556zm2.741.343h.67v-.395h-.67v-.727h.769v-.387h-1.183v2.665h.414zm2.512 1.156h.413v-2.278h.429v-.387h-1.272v.387h.43zm3.472-.387h-.769v-.769h.67v-.395h-.67v-.727h.769v-.387h-1.183v2.665h1.183zm2.488.302c.106-.056.183-.159.231-.31.031-.092.047-.217.05-.375l.004-.567-.002-.58c-.001-.164-.016-.294-.044-.389-.036-.13-.099-.223-.191-.277-.091-.055-.216-.082-.374-.082h-.661v2.665h.626c.135 0 .255-.028.361-.085zm-.574-.302v-1.892h.176c.104 0 .175.027.212.083.037.055.056.131.056.229v1.265c0 .103-.019.181-.058.234-.038.054-.108.081-.21.081h-.176zm5.135.409c.192 0 .347-.054.466-.16.118-.107.178-.266.178-.476v-.85h-.655v.36h.24v.524c0 .066-.021.118-.065.156-.044.039-.103.058-.175.058-.073 0-.124-.019-.152-.058l-.055-.126-.012-.081v-1.354l.01-.105.033-.104.07-.078.116-.031c.081 0 .139.031.175.092.037.062.055.141.055.238l.406-.081v-.03c0-.181-.051-.327-.153-.438s-.261-.167-.479-.167c-.117 0-.217.02-.298.058-.082.038-.149.091-.201.157-.053.066-.09.144-.113.231l-.035.281v1.329c0 .214.053.377.158.488.104.112.266.167.486.167zm2.842 0c.225 0 .389-.06.492-.178.105-.119.157-.294.157-.526v-1.302l-.032-.295-.107-.223c-.05-.061-.115-.107-.198-.14-.083-.031-.185-.048-.308-.048-.114 0-.213.018-.296.052-.083.035-.149.083-.2.146l-.113.225-.035.287v1.34c0 .214.051.378.152.492.102.114.265.17.488.17zm-.227-1.994l.01-.109.034-.107.07-.08.119-.033c.09 0 .15.029.182.088l.049.199v1.355c0 .082-.019.151-.055.209-.035.058-.096.086-.18.086s-.144-.027-.178-.082l-.052-.186v-1.34zm3.103 1.994c.224 0 .388-.06.492-.178.104-.119.156-.294.156-.526v-1.302l-.032-.295-.106-.223c-.05-.061-.116-.107-.199-.14-.082-.031-.185-.048-.308-.048-.114 0-.213.018-.295.052-.083.035-.15.083-.201.146l-.112.225c-.024.086-.036.183-.036.287v1.34c0 .214.051.378.152.492.102.114.265.17.489.17zm-.228-1.994l.01-.109.034-.107.071-.08.118-.033c.09 0 .15.029.183.088l.048.199v1.355c0 .082-.018.151-.054.209s-.096.086-.18.086c-.085 0-.144-.027-.179-.082l-.052-.186v-1.34zm3.472 1.887c.105-.056.183-.159.231-.31.03-.092.047-.217.05-.375l.004-.567-.002-.58c-.002-.164-.017-.294-.044-.389-.036-.13-.1-.223-.191-.277s-.216-.082-.374-.082h-.66v2.665h.626c.134 0 .254-.028.36-.085zm-.574-.302v-1.892h.177c.104 0 .176.027.212.083.037.055.056.131.056.229v1.265c0 .103-.019.181-.058.234-.038.054-.108.081-.21.081h-.177zm3.287-.096l-.073.086-.133.032c-.097 0-.161-.031-.194-.094l-.057-.243-.414.081.036.252c.024.078.063.146.117.205.054.058.123.104.206.137.083.032.183.049.298.049.125 0 .23-.019.316-.056.086-.036.154-.089.205-.156.052-.068.088-.149.109-.245.022-.096.033-.204.033-.324l-.018-.266-.07-.211-.159-.172c-.07-.053-.164-.102-.281-.147l-.199-.096-.109-.092-.044-.098-.008-.121.008-.114.034-.107.07-.08.12-.031c.096 0 .16.031.193.092.032.062.049.141.049.237l.414-.096-.031-.214-.104-.203-.195-.151c-.082-.039-.186-.06-.312-.06-.115 0-.214.019-.298.054-.083.036-.151.087-.205.152-.054.064-.094.142-.119.231l-.038.295.019.232.081.199c.04.062.1.122.178.179.078.056.181.111.309.165l.154.076.093.081.044.111.011.161-.005.146-.031.124zm-18.904 8.061l-.074.086-.133.032c-.096 0-.161-.031-.194-.094-.033-.062-.052-.144-.057-.243l-.414.081.037.252c.024.078.063.146.117.205l.206.137c.083.032.182.049.297.049.125 0 .231-.019.317-.056.086-.036.154-.089.206-.156.051-.068.087-.149.109-.245l.033-.324-.018-.266-.07-.211-.159-.172-.281-.147-.199-.096-.109-.092-.044-.098-.007-.121.007-.114.034-.107.07-.08.12-.031c.096 0 .161.031.194.092.033.062.049.141.049.237l.414-.096-.031-.214-.104-.203c-.048-.062-.114-.111-.196-.151-.082-.039-.186-.06-.311-.06-.115 0-.214.019-.297.054-.083.036-.152.087-.206.152-.054.064-.093.142-.119.231-.025.09-.038.188-.038.295l.019.232.081.199c.041.062.1.122.178.179.078.056.181.111.308.165l.155.076.092.081.044.111.012.161-.006.146-.032.124zm2.8.096h-.77v-.77h.67v-.394h-.67v-.728h.77v-.387h-1.183v2.665h1.183zm1.536-.716h.195l.345 1.103h.421l-.394-1.191c.121-.066.204-.157.251-.273.047-.116.07-.259.07-.427 0-.273-.062-.471-.184-.592-.123-.121-.292-.182-.51-.182h-.608v2.665h.414v-1.103zm0-1.176h.161c.115 0 .197.034.247.102s.075.162.075.285c0 .138-.026.238-.077.301-.051.062-.13.094-.237.094h-.168v-.782zm2.09-.387h.413v2.665h-.413zm2.856 2.279h-.769v-.77h.67v-.394h-.67v-.728h.769v-.387h-1.183v2.665h1.183zm1.928-.096l-.074.086-.133.032c-.096 0-.161-.031-.193-.094-.033-.062-.053-.144-.057-.243l-.414.081.036.252c.024.078.063.146.117.205l.206.137c.083.032.182.049.297.049.125 0 .231-.019.316-.056.086-.036.154-.089.206-.156.052-.068.087-.149.109-.245l.032-.324-.017-.266-.071-.211-.158-.172-.281-.147-.199-.096-.109-.092-.044-.098-.008-.121.008-.114.034-.107.07-.08.119-.031c.096 0 .16.031.193.092.033.062.05.141.05.237l.413-.096-.03-.214-.104-.203c-.049-.062-.114-.111-.196-.151-.082-.039-.186-.06-.311-.06-.115 0-.215.019-.298.054-.083.036-.151.087-.206.152-.053.064-.093.142-.118.231-.026.09-.038.188-.038.295l.019.232.081.199c.04.062.1.122.178.179.078.056.18.111.308.165l.155.076.092.081.044.111.012.161-.006.146-.03.124zm3.654-1.068h.016l.146.379.15.383.32.789h.362v-2.666h-.405v1.547l-.01.002-.01.002-.134-.367-.08-.196-.077-.194-.321-.793h-.371v2.665h.413v-1.551zm2.173 1.024l.014.112.052.167.103.14.165.098.231.036.195-.019.186-.073.149-.153s.07-.151.083-.257l.013-.172.006-.176v-.1l-.002-.245-.017-.245-.041-.199-.101-.161-.175-.108c-.07-.027-.156-.04-.259-.04-.147 0-.268.03-.359.092-.092.061-.156.14-.191.237l-.031.122-.019.165-.012.186-.004.189v.132l.004.14.01.132zm.401-.37v-.197l.005-.155.02-.122.039-.1c.031-.046.076-.068.137-.068.066 0 .112.028.141.084l.026.068.02.192.004.26-.002.146-.006.136-.01.107-.01.06-.059.09-.104.036-.121-.044-.061-.109-.017-.152-.002-.199v-.033zm1.96.433h.429v.464h-.429zm-46.017-1.552h5.172v1.008h-5.172zm5.83 0h5.172v1.008h-5.172zm8.477 0h5.172v1.008h-5.172zm42.572-5.729c-.104-.127-.24-.225-.414-.291-.172-.066-.387-.101-.643-.101-.238 0-.445.036-.617.108-.174.072-.312.174-.42.304-.105.131-.184.287-.234.468-.051.182-.076.382-.076.601v2.8c0 .448.105.791.318 1.028s.553.355 1.021.355c.467 0 .811-.124 1.029-.372.217-.248.326-.614.326-1.1l.002-2.72c0-.229-.023-.436-.068-.616-.044-.18-.119-.335-.224-.464zm-.572 3.849c0 .171-.037.316-.113.436-.074.12-.199.181-.375.181s-.301-.058-.373-.172c-.072-.115-.107-.244-.107-.389l.002-2.8.02-.228.072-.225c.033-.066.084-.122.146-.168.064-.045.146-.067.248-.067.188 0 .314.061.381.184s.1.262.1.416v2.832zm2.935-3.543v.928l.76-.608v4.6h.855v-5.568h-.806z" fill="#c3a995"/></svg>
