<svg xmlns="http://www.w3.org/2000/svg" width="24" height="24" viewBox="0"><path d="M19.04 6.01l-.04-.04c-.88-.79-1.92-1.18-3.11-1.14h-.09l.07-.04c1.08-.24 1.72-.51 1.91-.78.07-.21-.01-.33-.25-.36-.55.07-1.05.18-1.5.35.57-.35.79-.59.66-.72-.56.02-1.16.29-1.8.83.24-.38.32-.59.27-.63-.3.2-.57.41-.8.64-.48.51-.86.98-1.16 1.41l-.02.04c-.76 1.17-1.29 2.35-1.61 3.56l-.12.09-.02.02c-.46-.55-1-1-1.66-1.37-.76-.48-1.67-.93-2.72-1.38-1.14-.56-2.3-1.02-3.47-1.38-.01 1.24.63 2.24 1.91 2.96v.02c-.45 0-.89.06-1.31.19.08 1.16.95 1.96 2.58 2.4l-.01.02c-.64-.04-1.17.18-1.59.62.54 1 1.49 1.48 2.87 1.45-.27.13-.49.28-.63.44-.25.25-.33.55-.25.89.3.51.83.74 1.61.71l.04.05-.02.02c-1.35 1.33-2.98 1.93-4.89 1.8l-.02.01c-1.17-.01-2.41-.54-3.76-1.6 1.36 1.86 3.16 3.2 5.39 4.04 2.55.81 5.11.87 7.65.18h.04c2.47-.68 4.57-2.07 6.29-4.18.8-1.11 1.3-2.16 1.5-3.17 1.29.04 2.22-.31 2.8-1.06l-.01-.02c-.43.15-1.27.09-2.52-.15l-.11-.05c0-.04.08-.05.12-.05 1.36-.15 2.17-.58 2.43-1.28-.95.35-1.89.36-2.82.03-.18-1.24-.78-2.36-1.83-3.37z" clip-rule="evenodd" fill-rule="evenodd" fill="#FFF"/></svg>
