<svg xmlns="http://www.w3.org/2000/svg" width="294.158" height="255" viewBox="0 0 294.158 255"><style>.s0{fill:#BAB6B3;}</style><path d="M254.904 210.827h-213.526c-2.857 0-5.201-2.242-5.371-5.063-2.222-.709-3.834-2.784-3.834-5.227v-.043c-1.711-.979-2.868-2.833-2.868-4.956v-.569c-1.189-1.061-1.914-2.603-1.914-4.296v-.569c-1.186-1.078-1.912-2.628-1.912-4.297v-135.734c0-3.211 2.601-5.823 5.797-5.823h232.774c3.196 0 5.796 2.612 5.796 5.823v135.733c0 1.67-.727 3.221-1.914 4.299v.567c0 1.692-.724 3.233-1.91 4.294v.571c0 2.122-1.157 3.978-2.868 4.956v.043c0 2.072-1.161 3.88-2.87 4.813v.086c-.001 2.974-2.414 5.392-5.38 5.392zm-217.334-4.64c.35 1.788 1.924 3.141 3.808 3.141h213.526c1.883 0 3.457-1.353 3.807-3.141h-221.141zm-3.825-4.9c.354 1.842 1.989 3.238 3.947 3.238h219.943c1.958 0 3.593-1.396 3.947-3.238h-227.837zm-2.873-4.999c.35 1.955 2.042 3.441 4.07 3.441h225.44c2.029 0 3.723-1.486 4.072-3.441h-1.023c-.431.096-.829.143-1.216.143h-229.105c-.387 0-.785-.047-1.216-.143h-1.022zm1.197-1.5h231.187c1.629-.418 2.826-1.743 3.11-3.365h-.856c-.531.144-.998.21-1.46.21h-232.773c-.462 0-.929-.067-1.46-.21h-.859c.284 1.622 1.481 2.946 3.111 3.365zm-2.043-4.865h235.274c1.799-.555 3.046-2.232 3.046-4.116v-135.734c0-2.384-1.927-4.323-4.296-4.323h-232.773c-2.369 0-4.297 1.939-4.297 4.323v135.733c0 1.884 1.248 3.562 3.046 4.117zm221.747-62.603h-38.025c-1.528 0-2.772-1.244-2.772-2.774v-20.907c0-1.53 1.244-2.774 2.772-2.774h38.025c1.53 0 2.774 1.244 2.774 2.774v20.907c.001 1.53-1.243 2.774-2.774 2.774zm-38.025-24.955c-.701 0-1.272.571-1.272 1.274v20.907c0 .703.571 1.274 1.272 1.274h38.025c.703 0 1.274-.571 1.274-1.274v-20.907c0-.703-.571-1.274-1.274-1.274h-38.025zm-19.344 24.955h-38.025c-1.529 0-2.774-1.244-2.774-2.774v-20.907c0-1.53 1.245-2.774 2.774-2.774h38.025c1.528 0 2.772 1.244 2.772 2.774v20.907c.001 1.53-1.243 2.774-2.772 2.774zm-38.025-24.955c-.703 0-1.273.571-1.273 1.274v20.907c0 .703.57 1.274 1.273 1.274h38.025c.702 0 1.272-.571 1.272-1.274v-20.907c0-.703-.57-1.274-1.272-1.274h-38.025zm-19.346 24.955h-38.023c-1.53 0-2.774-1.244-2.774-2.774v-20.907c0-1.53 1.244-2.774 2.774-2.774h38.023c1.529 0 2.774 1.244 2.774 2.774v20.907c0 1.53-1.245 2.774-2.774 2.774zm-38.023-24.955c-.703 0-1.274.571-1.274 1.274v20.907c0 .703.571 1.274 1.274 1.274h38.023c.703 0 1.274-.571 1.274-1.274v-20.907c0-.703-.571-1.274-1.274-1.274h-38.023zm-19.347 24.955h-38.023c-1.53 0-2.774-1.244-2.774-2.774v-20.907c0-1.53 1.244-2.774 2.774-2.774h38.023c1.529 0 2.773 1.244 2.773 2.774v20.907c0 1.53-1.244 2.774-2.773 2.774zm-38.023-24.955c-.703 0-1.274.571-1.274 1.274v20.907c0 .703.571 1.274 1.274 1.274h38.023c.702 0 1.273-.571 1.273-1.274v-20.907c0-.703-.571-1.274-1.273-1.274h-38.023z" fill="#C6C2BF"/><path fill="#BAB6B3" d="M215.828 173.051l2.787-16.359h4.459l-2.79 16.359zm20.627-15.956c-.883-.331-2.268-.687-3.996-.687-4.405 0-7.509 2.219-7.535 5.398-.025 2.351 2.215 3.661 3.907 4.444 1.735.802 2.318 1.312 2.311 2.028-.012 1.097-1.387 1.598-2.668 1.598-1.784 0-2.732-.248-4.196-.858l-.575-.261-.626 3.662c1.042.457 2.968.853 4.967.873 4.688 0 7.729-2.193 7.765-5.589.017-1.86-1.172-3.276-3.744-4.444-1.559-.757-2.513-1.262-2.503-2.027 0-.681.809-1.407 2.554-1.407 1.458-.022 2.515.295 3.337.627l.399.188.603-3.545M247.889 156.708h-3.445c-1.067 0-1.866.291-2.335 1.356l-6.621 14.991h4.682s.766-2.016.938-2.458l5.71.007c.134.572.543 2.451.543 2.451h4.137l-3.609-16.347m-5.498 10.544c.369-.943 1.776-4.573 1.776-4.573l.591-1.562.302 1.411s.854 3.904 1.032 4.724h-3.701zm-30.303-10.548l-4.365 11.155-.465-2.267c-.812-2.613-3.345-5.445-6.176-6.862l3.992 14.306 4.717-.006 7.02-16.326h-4.723"/><path d="M203.674 156.694h-7.189l-.058.34c5.593 1.354 9.294 4.627 10.831 8.559l-1.563-7.518c-.271-1.036-1.053-1.345-2.021-1.381" fill="#CFCAC7"/></svg>