<svg xmlns="http://www.w3.org/2000/svg" xmlns:xlink="http://www.w3.org/1999/xlink" width="294.158" height="255" viewBox="0 0 294.158 255"><style>.s0{fill:#B9B5B2;}.s1{fill:#C0BEBA;}</style><path d="M240.439 199.241l-157.858-.015.037-.982.01-.201c.002-6.379-4.986-11.548-11.355-11.768l-.725-.025.001-7.55h.75c.538 0 .976-.439.976-.979s-.438-.979-.975-.979h-.75v-4.093h.75c.537 0 .975-.439.975-.98 0-.54-.438-.979-.975-.979h-.75v-4.092l.75-.001c.539-.001.977-.44.977-.98s-.438-.98-.976-.98h-.75v-4.094h.749c.539-.001.977-.439.977-.979s-.438-.979-.977-.979l-.749-.001.001-4.094h.75c.537 0 .976-.439.976-.98 0-.539-.438-.978-.976-.978h-.75v-4.094l.75-.001c.537 0 .977-.439.977-.98 0-.54-.438-.98-.977-.98h-.75v-4.092h.75c.539 0 .977-.439.977-.979s-.438-.98-.976-.98h-.75v-4.093h.749c.539 0 .978-.439.978-.979s-.438-.979-.976-.979h-.75v-4.096h.75c.537 0 .976-.438.976-.977 0-.541-.438-.98-.976-.98h-.75v-4.096h.75c.538 0 .977-.439.977-.978 0-.54-.438-.979-.977-.979h-.75l.001-7.556.751.001c6.248 0 11.33-5.095 11.332-11.355v-.75l158.561.014v.75c0 6.739 5.47 12.223 12.193 12.225h.75v6.688h-.75c-.539 0-.978.439-.978.98 0 .539.438.979.976.979h.75l.002 4.094h-.75c-.539 0-.978.439-.978.98 0 .54.438.979.976.979h.75l.002 4.093h-.751c-.538 0-.977.439-.977.98 0 .539.438.979.976.979h.75v4.096h-.75c-.537 0-.976.438-.976.979 0 .539.438.979.976.979h.75v4.096h-.75c-.538 0-.976.439-.976.979s.438.979.976.979h.75v4.095h-.75c-.538 0-.976.439-.976.98-.001.262.101.508.285.692s.429.286.688.286h.75v4.096l-.75-.001c-.539 0-.977.438-.977.979s.438.979.977.979h.75v4.096h-.75c-.538 0-.977.438-.978.979 0 .54.438.979.976.979h.75l.002 4.094h-.75c-.539 0-.978.439-.978.979s.438.979.976.979h.75v4.095h-.75c-.537 0-.976.439-.976.98 0 .539.438.978.976.978h.75v7.555h-.75c-6.727 0-12.196 5.48-12.196 12.218v.75l-.75-.005zm-156.314-1.514l155.585.015c.377-6.971 5.969-12.573 12.926-12.949v-4.691c-1-.318-1.726-1.257-1.726-2.361 0-1.105.726-2.045 1.726-2.364l.001-1.327c-1.001-.318-1.727-1.257-1.727-2.362s.727-2.045 1.726-2.363l.002-1.326c-1.001-.319-1.728-1.259-1.728-2.364.002-1.104.729-2.043 1.728-2.362v-1.327c-1-.319-1.727-1.258-1.727-2.363 0-1.106.727-2.045 1.727-2.362l.001-1.326c-.374-.118-.716-.326-1.001-.611-.469-.47-.725-1.093-.724-1.754 0-1.105.726-2.043 1.726-2.363v-1.326c-1-.318-1.726-1.258-1.726-2.362 0-1.105.726-2.044 1.726-2.363v-1.328c-1-.319-1.726-1.257-1.726-2.362s.726-2.044 1.726-2.363l.001-1.326c-1.001-.319-1.727-1.258-1.727-2.363 0-1.106.726-2.045 1.726-2.364l.001-1.325c-1-.318-1.727-1.258-1.727-2.363s.727-2.045 1.726-2.364l.002-1.326c-1.001-.319-1.728-1.257-1.728-2.362 0-1.106.728-2.045 1.728-2.363l.001-3.826c-6.956-.379-12.548-5.982-12.925-12.951l-155.602-.016c-.377 6.492-5.583 11.709-12.062 12.084l-.001 4.692c1 .319 1.727 1.258 1.727 2.363 0 1.104-.727 2.042-1.727 2.361v1.327c1 .32 1.726 1.259 1.726 2.365 0 1.104-.726 2.043-1.726 2.361l-.001 1.326c1 .319 1.727 1.258 1.727 2.364 0 1.104-.727 2.044-1.727 2.363v1.325c.999.319 1.726 1.258 1.726 2.364 0 1.105-.727 2.044-1.727 2.362v1.326c1 .318 1.727 1.258 1.727 2.363-.001 1.105-.728 2.045-1.727 2.364v1.327c1 .318 1.726 1.257 1.726 2.361 0 1.105-.726 2.045-1.726 2.364l-.001 1.327c.999.32 1.726 1.259 1.726 2.363s-.727 2.043-1.726 2.361v1.328c.999.318 1.726 1.258 1.726 2.363s-.727 2.044-1.727 2.363v1.326c1 .319 1.725 1.258 1.725 2.363s-.726 2.045-1.725 2.364v1.325c.999.319 1.725 1.258 1.725 2.363s-.726 2.044-1.726 2.363l-.001 4.736c6.729.59 11.923 6.102 12.078 12.906z" fill="#B9B5B2"/><defs><path id="SVGID_1_" d="M249.854 40.316l-13.652 63.056h-149.598l-13.58 22.944-1.719 55.5s1.15 10.25 1.725 11.75-23.926 16.846-25.176 15.673-43.5-62.928-48.5-79.925c-5-16.998 44.5-72.248 48.5-72.998l148.75-21.75"/></defs><clipPath id="SVGID_2_"><use xlink:href="#SVGID_1_"/></clipPath><path d="M62.134 188.89c-3.949 0-7.441-2.664-8.494-6.479l-16.61-60.276c-1.289-4.68 1.453-9.531 6.114-10.817l127.56-35.149-.148 1.122c-.02.15-.008.31.035.46.175.64.854 1.033 1.492.855.641-.178 1.018-.848.84-1.494-.043-.157-.111-.295-.204-.408l-.723-.892 37.239-10.262c.754-.207 1.529-.312 2.306-.312 3.946 0 7.435 2.661 8.485 6.47l16.609 60.278c1.29 4.684-1.451 9.539-6.109 10.824l-37.622 10.367.402-1.307c.074-.242.08-.491.017-.722-.174-.633-.85-1.029-1.487-.854-.642.178-1.021.852-.844 1.502.062.224.196.434.384.6l1.035.918-127.978 35.264c-.75.207-1.525.312-2.299.312zm107.012-110.737l-125.603 34.61c-3.863 1.065-6.136 5.09-5.066 8.973l16.609 60.275c.874 3.167 3.771 5.378 7.048 5.378.641 0 1.279-.086 1.9-.257l125.624-34.616-.112-.32c-.395-1.45.453-2.95 1.891-3.348 1.42-.39 2.945.491 3.334 1.904l.069.335 35.288-9.724c3.861-1.064 6.133-5.093 5.062-8.979l-16.611-60.278c-.871-3.161-3.766-5.369-7.038-5.369-.642 0-1.284.087-1.907.258l-35.264 9.717v.001c.396 1.443-.45 2.94-1.888 3.337-1.419.392-2.95-.486-3.336-1.897zm20.981 68.639c-1.218 0-2.296-.825-2.622-2.007-.396-1.443.453-2.939 1.893-3.338 1.422-.392 2.945.49 3.332 1.899.195.703.104 1.441-.256 2.077-.357.629-.936 1.08-1.63 1.271-.236.066-.476.098-.717.098zm-.011-3.942c-.107 0-.215.015-.32.043-.643.178-1.022.848-.846 1.494.176.637.857 1.037 1.496.861.307-.084.563-.285.723-.564.162-.287.203-.62.115-.938-.145-.529-.625-.896-1.168-.896zm-2.037-3.467c-1.214 0-2.288-.822-2.611-2-.398-1.441.448-2.939 1.889-3.338 1.421-.391 2.945.49 3.334 1.9.396 1.445-.45 2.943-1.889 3.339-.237.066-.479.099-.723.099zm-.004-3.936c-.107 0-.215.015-.32.043-.642.178-1.02.85-.842 1.494.174.635.854 1.033 1.49.854.642-.176 1.019-.848.841-1.494-.145-.528-.626-.897-1.169-.897zm-2.032-3.468c-1.217 0-2.293-.823-2.617-2.002-.192-.699-.103-1.432.257-2.062.357-.631.938-1.083 1.636-1.274 1.407-.392 2.941.489 3.331 1.898.398 1.447-.449 2.946-1.888 3.343-.236.063-.478.097-.719.097zm-.008-3.936c-.106 0-.214.014-.319.043-.311.086-.569.287-.729.568-.161.283-.202.611-.115.924.174.635.854 1.03 1.492.857.641-.178 1.018-.85.839-1.499-.145-.526-.626-.893-1.168-.893zm-2.036-3.47c-1.214 0-2.289-.821-2.613-1.995-.398-1.445.451-2.944 1.893-3.342 1.42-.391 2.941.49 3.332 1.901.193.7.104 1.433-.254 2.062-.355.63-.937 1.082-1.635 1.274-.236.067-.479.1-.723.1zm-.002-3.934c-.107 0-.215.015-.32.043-.645.178-1.023.85-.846 1.497.174.632.855 1.024 1.492.851.311-.086.57-.288.729-.568.16-.281.199-.609.113-.924-.146-.53-.627-.899-1.168-.899zm-2.036-3.469c-1.216 0-2.291-.822-2.615-2-.192-.699-.103-1.431.253-2.061.357-.631.939-1.086 1.639-1.278 1.414-.388 2.945.489 3.332 1.9.194.7.104 1.436-.255 2.067-.356.629-.937 1.082-1.632 1.273-.236.066-.479.099-.722.099zm-.005-3.937c-.107 0-.215.015-.32.044-.312.086-.572.289-.73.57-.16.281-.2.609-.113.924.175.635.857 1.03 1.492.854.309-.085.566-.286.725-.566.162-.284.202-.614.115-.93-.146-.527-.626-.896-1.169-.896zm-2.035-3.463c-1.215 0-2.29-.822-2.614-2-.397-1.443.45-2.942 1.89-3.342 1.42-.393 2.945.489 3.334 1.9.396 1.447-.45 2.947-1.889 3.344-.235.064-.479.098-.721.098zm-.004-3.94c-.108 0-.217.015-.322.044-.643.179-1.021.85-.842 1.497.174.635.854 1.032 1.489.855.644-.178 1.02-.851.841-1.5-.145-.527-.625-.896-1.166-.896zm-2.035-3.465c-1.215 0-2.291-.821-2.616-1.997-.397-1.449.452-2.948 1.89-3.345 1.414-.39 2.945.492 3.336 1.903.396 1.446-.451 2.944-1.891 3.341-.235.065-.477.098-.719.098zm-.01-3.939c-.107 0-.214.016-.318.044-.643.177-1.02.851-.842 1.5.174.631.854 1.028 1.49.852.643-.177 1.02-.849.842-1.496-.146-.529-.628-.9-1.172-.9zm-2.032-3.468c-1.214 0-2.29-.821-2.614-1.997-.398-1.445.451-2.945 1.891-3.344 1.429-.39 2.947.495 3.334 1.904.396 1.441-.451 2.939-1.89 3.338-.237.066-.479.099-.721.099zm-.011-3.937c-.105 0-.211.014-.314.042-.643.178-1.021.851-.844 1.499.174.631.854 1.024 1.49.852.643-.178 1.021-.849.843-1.495-.146-.528-.628-.898-1.175-.898zm-2.023-3.46c-1.219 0-2.295-.822-2.618-2.002-.194-.698-.104-1.432.251-2.063.356-.632.938-1.087 1.639-1.28 1.416-.39 2.945.492 3.334 1.906.192.697.103 1.431-.252 2.062-.357.633-.938 1.088-1.637 1.28-.235.064-.476.097-.717.097zm-.012-3.944c-.106 0-.214.015-.318.043-.312.086-.571.289-.73.571-.16.283-.199.613-.111.929.174.636.854 1.033 1.49.857.311-.086.568-.287.728-.57s.2-.613.112-.928c-.147-.531-.628-.902-1.171-.902z" fill="#B9B5B2" clip-path="url(#SVGID_2_)"/><path d="M230.384 189.728l-136.084-.012c-5.482 0-9.943-4.556-9.943-10.155l.004-56.422c.002-5.6 4.464-10.154 9.947-10.154l136.082.013c5.482 0 9.943 4.556 9.943 10.155l-.004 56.421c0 5.598-4.461 10.154-9.945 10.154zm-136.076-75.244c-4.656 0-8.445 3.883-8.447 8.654l-.004 56.422c0 4.772 3.787 8.655 8.443 8.655l136.084.012c4.656 0 8.445-3.882 8.445-8.654l.004-56.421c0-4.772-3.787-8.655-8.443-8.655l-136.082-.013zm121.113-.343h1.726l-.006 74.972h-1.726l.006-74.972zm-107.008-.011h1.725l-.006 74.973h-1.727l.008-74.973z" fill="#B9B5B2"/><path d="M224.515 120.576c-.03.285-.016.57.029 1.021.061.72.315 1.44.75 1.979.51.631 1.245 1.065 2.16 1.245l.016-.03c-.556-.494-.871-1.185-.871-2.129 0-1.695 1.23-2.955 3.03-2.955 1.86 0 3.479 1.439 3.479 3.524 0 2.265-1.784 3.479-4.154 3.479-2.085 0-3.57-.689-4.529-1.694-.795-.854-1.246-2.024-1.336-3.33-.045-.42-.045-.84-.029-1.11h1.455zm5.218.961c-1.004.015-1.784.584-1.784 1.604 0 .75.345 1.29.81 1.575.12.06.271.104.525.104 1.32.015 2.46-.479 2.46-1.68 0-.929-.825-1.603-2.011-1.603zm-6.539 10.395h2.475v-4.41h1.2l6.075 3.975v2.176h-5.881v1.26h-1.395v-1.26h-2.475v-1.741zm3.869 0h2.656c.555 0 1.125.015 1.694.061v-.061c-.615-.301-1.11-.555-1.649-.855l-2.67-1.785-.031-.015v2.655zm-1.364 3.839c1.215 0 2.04.705 2.534 1.83h.046c.495-1.02 1.305-1.484 2.159-1.484 1.59 0 2.67 1.41 2.67 3.254 0 2.101-1.26 3.061-2.459 3.061-.825 0-1.68-.436-2.205-1.5h-.045c-.405 1.064-1.245 1.859-2.46 1.859-1.74 0-2.91-1.47-2.91-3.555 0-2.279 1.306-3.465 2.67-3.465zm.09 5.145c.99 0 1.53-.734 1.83-1.814-.271-.915-.899-1.439-1.71-1.439-.824-.03-1.574.6-1.574 1.635 0 .973.614 1.618 1.454 1.618zm4.726-3.045c-.795 0-1.275.66-1.531 1.59.195.66.736 1.215 1.471 1.215.675 0 1.38-.404 1.38-1.395-.001-.929-.615-1.41-1.32-1.41zm.899 12.27v-3.75l-1.95-.285c.03.226.045.421.045.705 0 .855-.195 1.711-.63 2.371-.465.734-1.29 1.274-2.475 1.274-1.86 0-3.375-1.545-3.375-3.944 0-1.125.285-2.07.569-2.58l1.396.375c-.226.42-.51 1.26-.51 2.145 0 1.08.614 2.115 1.784 2.115 1.111 0 1.846-.825 1.846-2.775 0-.54-.03-.945-.09-1.335l4.92.646v5.039h-1.53zm-3.285 8.73c-3.135 0-5.1-1.23-5.1-3.555 0-2.25 2.04-3.45 5.01-3.465 3.03 0 5.069 1.289 5.069 3.569 0 2.355-2.099 3.451-4.979 3.451zm-.09-5.16c-2.37-.015-3.6.645-3.6 1.665 0 1.08 1.319 1.649 3.659 1.649 2.266 0 3.601-.539 3.601-1.649 0-.989-1.216-1.68-3.66-1.665zm.09 13.2c-3.135 0-5.1-1.229-5.1-3.556 0-2.249 2.04-3.449 5.01-3.465 3.03 0 5.069 1.291 5.069 3.57 0 2.356-2.099 3.451-4.979 3.451zm-.09-5.159c-2.37-.016-3.6.645-3.6 1.664 0 1.08 1.319 1.65 3.659 1.65 2.266 0 3.601-.54 3.601-1.65 0-.99-1.216-1.68-3.66-1.664zm.09 13.199c-3.135 0-5.1-1.23-5.1-3.555 0-2.25 2.04-3.45 5.01-3.465 3.03 0 5.069 1.289 5.069 3.569 0 2.355-2.099 3.451-4.979 3.451zm-.09-5.16c-2.37-.015-3.6.645-3.6 1.665 0 1.08 1.319 1.649 3.659 1.649 2.266 0 3.601-.539 3.601-1.649 0-.989-1.216-1.68-3.66-1.665zm-2.94 6.689c-.225.375-.6 1.291-.6 2.221 0 1.41.795 1.979 1.561 1.965 1.154 0 1.649-1.08 1.649-2.205v-.855h1.351v.825c0 .854.39 1.935 1.364 1.935.66 0 1.216-.494 1.216-1.56 0-.795-.346-1.59-.615-1.995l1.334-.42c.391.555.75 1.635.75 2.805 0 2.01-1.109 3.045-2.385 3.045-1.02 0-1.859-.6-2.279-1.799h-.03c-.21 1.184-1.11 2.145-2.43 2.145-1.649 0-2.955-1.381-2.955-3.795 0-1.186.33-2.205.675-2.73l1.394.418z" fill="#C0BEBA"/></svg>